PathFileType	4	(X/Y/Z)	C:\Users\WrightLab\Desktop\Jo\P3_21.trc
DataRate	CameraRate	NumFrames	NumMarkers	Units	OrigDataRate	OrigDataStartFrame	OrigNumFrames
100.00	100.00	       27	19	mm	100.00	1	       614
Frame#	Time	Headset_Front			Headset_Back			Headset_Left			Headset_Right			Left_Shoulder			Right_Shoulder			Sternum			C7			Left Elbow			Right Elbow			Left Wrist			Right Wrist			Left ASIS			Right ASIS			S2			Left Knee			Right Knee			Left Ankle			Right Ankle			
		X1	Y1	Z1	X2	Y2	Z2	X3	Y3	Z3	X4	Y4	Z4	X5	Y5	Z5	X6	Y6	Z6	X7	Y7	Z7	X8	Y8	Z8	X9	Y9	Z9	X10	Y10	Z10	X11	Y11	Z11	X12	Y12	Z12	X13	Y13	Z13	X14	Y14	Z14	X15	Y15	Z15	X16	Y16	Z16	X17	Y17	Z17	X18	Y18	Z18	X19	Y19	Z19	

1	0.000				-11.07149	1677.00476	2490.40234	-130.75803	1610.95691	2398.57300				-208.26785	1395.78442	2442.68286	150.10522	1394.16577	2512.93726				-30.17131	1452.73413	2527.12622	-264.27051	1059.05237	2449.78589	218.08244	1047.54907	2555.33789				221.32652	858.27576	2433.09131							-50.36325	1005.49072	2619.80493	-111.12146	523.76843	2297.50049	87.97018	494.09558	2542.87451	-132.12379	241.91934	2478.78418	51.34743	173.96281	2642.41943	
2	0.010				-10.03848	1676.70520	2486.40308	-129.91499	1611.26074	2395.02197				-207.07166	1395.47949	2439.21191	150.81837	1393.86401	2509.99658				-29.12968	1451.90625	2522.82324	-263.39783	1059.19275	2446.19556	218.68282	1046.89490	2552.39819				221.45416	857.95258	2432.93750							-50.01843	1005.55859	2616.72363	-109.69395	525.49493	2293.31860	88.43272	494.01141	2541.79761	-128.79137	238.36996	2466.05225	52.01041	172.46944	2642.16797	
3	0.020				-9.82292	1676.81787	2482.45166	-129.35773	1610.48206	2391.63770				-206.46709	1395.53271	2436.13159	151.38943	1393.21472	2506.16284				-28.68557	1452.15576	2520.36646	-263.20288	1059.44080	2442.65649	218.56036	1046.42285	2549.81909				221.33762	857.53064	2429.28809							-49.77445	1005.18280	2613.42065	-108.65102	527.27002	2285.69995	88.05544	493.29770	2537.82739	-125.48903	234.55515	2452.68408	51.42285	173.81258	2642.28223	
4	0.030				-8.59530	1676.89868	2478.06665	-128.88560	1609.45813	2387.25610				-205.74347	1395.04700	2432.93848	152.26126	1392.50342	2502.47681				-27.44609	1451.98804	2516.55151	-262.64044	1059.43347	2439.00024	218.53174	1046.64600	2547.55835				221.20911	856.80219	2423.76172							-48.66660	1004.54108	2610.23779	-107.44444	528.26031	2280.73926	88.70380	492.38028	2536.81177	-121.80424	230.30455	2439.20435	51.40377	173.87389	2641.50171	
5	0.040				-8.09254	1676.36487	2473.77490	-127.92012	1609.01184	2383.39771				-204.93484	1394.72449	2428.91431	153.06790	1392.39075	2499.19556				-27.33748	1451.49609	2512.95776	-262.10153	1059.22375	2435.14453	219.07402	1045.92126	2544.15381				221.31700	855.98236	2423.72632							-48.39212	1004.85657	2607.15991	-106.27444	528.65662	2275.94849	89.32185	492.68869	2534.84521	-118.82066	225.34779	2425.85620	51.52906	173.05203	2640.81445	
6	0.050				-7.41121	1676.27124	2469.32764	-127.64138	1608.33875	2379.61963				-204.37862	1394.20251	2425.70752	153.73241	1391.73474	2495.00244				-26.30155	1450.89343	2509.11914	-261.87979	1058.51514	2430.37646	219.39340	1045.43750	2540.31665				221.15152	855.35559	2422.15332							-47.65747	1003.86053	2603.29541	-103.98891	527.91284	2270.99829	89.44255	491.56259	2531.95313	-115.72733	221.03062	2411.31421	51.34221	173.88254	2640.97437	
7	0.060				-6.61607	1675.56360	2464.55762	-127.21726	1607.80066	2375.34399				-203.49629	1393.81763	2421.20947	154.26648	1391.49670	2491.50659				-25.59229	1450.22095	2505.18433	-261.42490	1057.66101	2426.34595	219.50145	1044.74915	2537.75195				221.00572	854.96704	2418.55786							-47.09166	1003.78760	2599.85840	-103.51074	528.45026	2266.60522	89.67431	491.18927	2530.87134	-112.57756	216.22490	2396.28564	51.04625	173.51312	2638.42969	
8	0.070				-6.11696	1675.36487	2460.04810	-126.86629	1607.27881	2371.39771				-203.18060	1393.20740	2417.49878	154.92747	1390.67627	2487.32910				-25.58392	1449.94678	2501.15381	-261.10654	1057.39502	2422.13452	219.62801	1044.35754	2533.96362				221.00554	854.18958	2412.84766							-46.52763	1003.27045	2596.15137	-102.49013	528.86108	2262.24658	90.06700	490.88672	2527.63354	-109.82386	211.57605	2380.23608	51.05124	173.50484	2638.42236	
9	0.080				-5.68704	1674.64978	2455.52173	-126.44072	1606.10278	2366.96289				-202.45428	1392.44397	2413.23926	155.02652	1390.38623	2483.31372				-24.37301	1449.26196	2496.77905	-260.31137	1056.60046	2417.91138	219.79642	1043.89063	2530.79614				221.16690	853.30701	2412.73413							-46.55154	1003.07086	2592.41528	-101.15841	527.74792	2257.28345	89.97067	489.86322	2524.90039	-105.84856	207.73628	2363.00659	50.27298	173.20853	2636.82324	
10	0.090				-4.90201	1674.15234	2450.29272	-125.81626	1605.64856	2362.51587				-201.99149	1391.47791	2409.03149	155.52368	1389.80542	2479.06006				-24.68013	1448.79321	2492.57080	-259.96722	1055.42102	2413.13940	220.14110	1043.52148	2526.29883				220.98021	852.64783	2407.31836							-45.66087	1002.11963	2588.24951	-100.07358	527.21588	2255.20117	89.48177	489.06689	2520.12720	-102.52277	203.11687	2345.72925	50.32220	173.25150	2636.40552	
11	0.100				-5.03645	1673.37842	2446.09058	-126.00283	1604.54749	2358.05615				-201.71123	1390.64160	2405.17358	156.00778	1389.22546	2474.73804				-23.57844	1447.81689	2488.21558	-259.21310	1054.95569	2407.91235	220.05554	1042.50085	2523.11670				221.12708	852.23151	2401.32520							-45.85605	1000.92316	2584.09790	-99.40310	526.69226	2251.38574	89.53773	488.09045	2517.77319	-100.60236	199.25481	2329.14038	50.39536	173.25209	2636.21558	
12	0.110				-4.30052	1672.75940	2440.81104	-125.50928	1603.43188	2353.80298				-201.05406	1389.44653	2400.09521	156.45938	1388.61792	2470.12305				-23.59745	1446.63098	2482.97974	-258.82977	1054.55273	2403.93384	220.55942	1041.92822	2518.50854				221.24898	851.17780	2401.30469							-45.03183	1000.03876	2579.44849	-98.50576	525.31927	2247.50171	88.83305	487.37280	2513.46045	-97.30623	195.84245	2312.94312	50.25799	173.39140	2635.71191	
13	0.120				-3.74073	1671.44031	2435.00317	-125.27224	1602.20972	2348.33887				-201.07693	1388.59290	2396.10474	156.75090	1387.42249	2465.37231				-23.15443	1446.22241	2478.74976	-258.51822	1052.81970	2398.43115	220.75519	1040.77979	2514.28198				221.29347	850.37225	2395.55444							-45.19953	999.14001	2575.35132	-98.27789	523.84967	2244.40234	89.11443	486.08694	2510.04590	-95.09993	192.33658	2297.24805	50.38136	173.65205	2635.15869	
14	0.130				-3.79776	1671.13098	2430.47510	-125.13275	1601.23376	2344.19116				-200.63731	1387.49805	2391.08374	157.00710	1386.84424	2460.58545				-23.10133	1445.36609	2473.82739	-258.10132	1051.98718	2394.31885	220.41142	1040.55640	2510.36914				221.32698	849.57721	2389.83008							-45.05864	998.53174	2571.32568	-97.36309	522.09918	2242.71411	89.74390	485.19400	2507.09546	-92.73185	189.52823	2280.79785	50.45779	173.87996	2634.60742	
15	0.140				-3.29999	1669.89490	2425.21533	-125.05746	1599.92786	2338.96436				-199.98225	1385.88879	2385.71655	157.39603	1385.95288	2456.06299				-22.95704	1444.56177	2469.16821	-257.75626	1050.87915	2388.77417	221.03560	1039.64661	2505.43262				221.37450	848.64337	2387.97656							-45.05404	997.02490	2566.26099	-97.13148	521.08398	2239.49854	89.48125	484.74438	2503.10767	-90.22381	187.67490	2264.00708	50.71687	174.10661	2633.97363	
16	0.150				-3.08835	1668.90552	2419.42065	-125.31617	1599.37036	2334.13916				-200.35535	1384.97205	2381.70435	157.35928	1384.91455	2450.95996				-22.36431	1443.41907	2463.97510	-257.42188	1049.25085	2382.68970	221.42665	1038.14417	2500.43628				220.77176	849.73169	2378.54028							-44.91200	996.07043	2561.82300	-96.59813	518.89398	2235.22290	89.28476	483.84225	2498.53638	-88.66572	185.87563	2248.54077	50.90542	174.23138	2633.66748	
17	0.160				-3.32008	1668.47729	2414.98413	-124.88656	1597.80615	2328.95435				-199.81976	1383.57751	2375.81519	157.81514	1384.11938	2445.98730				-22.77577	1442.17346	2458.62109	-257.05325	1048.28870	2377.96094	221.77203	1037.15857	2495.55103				221.01735	847.99219	2373.91431							-44.77795	995.21576	2556.77271	-96.01872	518.01398	2232.87622	89.79067	482.78186	2496.15381	-86.33149	185.03043	2232.94336	50.99345	174.38266	2633.17822	
18	0.170				-2.87576	1666.92285	2408.81665	-125.11095	1596.47046	2323.58618				-199.60097	1381.79224	2370.55444	157.60136	1383.00610	2441.17090				-22.49842	1441.14001	2453.83789	-256.32761	1046.55652	2372.32031	221.80484	1036.32214	2489.96045				221.11786	847.13373	2370.26855							-44.97217	994.11096	2551.77661	-95.12199	516.23035	2229.61743	90.47643	481.70508	2493.18213	-84.62137	183.94896	2218.76465	50.77737	174.64183	2630.48340	
19	0.180				-3.18247	1666.35303	2403.31079	-124.96983	1595.56482	2318.20996				-200.00002	1380.90051	2365.81226	157.53494	1381.97437	2435.85254				-22.61866	1439.90259	2448.79956	-256.14850	1045.27197	2366.91016	221.87685	1035.62878	2485.54956				221.46111	844.78522	2367.29272							-44.30484	992.50348	2546.18896	-93.98632	514.66589	2227.86890	89.93300	480.79483	2487.49146	-82.67514	183.66750	2204.83105	50.79673	174.79553	2630.12354	
20	0.190				-2.77238	1665.06091	2397.23438	-125.10310	1594.53687	2313.29688				-199.38084	1378.91528	2359.65576	157.89581	1380.58008	2430.60986				-22.73869	1438.63647	2442.63330	-255.73586	1043.40723	2360.04077	222.28503	1034.29895	2479.53003				221.38194	844.04688	2362.11816							-44.02525	991.24139	2539.96436	-93.67144	512.88837	2222.84741	90.75832	479.94928	2484.97925	-81.12778	184.17528	2191.80371	50.95401	175.02438	2629.59644	
21	0.200				-2.92170	1664.37708	2391.71240	-125.41996	1593.08179	2307.89404				-199.57059	1377.43250	2353.86597	157.86322	1380.12720	2425.23828				-23.01632	1437.70520	2437.97510	-255.42744	1042.66553	2354.74194	222.23470	1033.38379	2473.77783				221.78433	842.54572	2355.63672							-44.21976	990.59747	2534.66113	-93.21016	512.52563	2218.88306	90.91364	478.53677	2482.23022	-79.49041	183.53275	2180.76147	50.98712	175.13303	2629.38428	
22	0.210				-2.84701	1663.31238	2385.63721	-125.61553	1592.26685	2302.34790				-199.42592	1376.18579	2348.47192	157.70740	1378.80261	2419.77100				-22.78512	1436.65295	2432.13550	-255.62433	1040.56201	2347.72070	222.52039	1032.66418	2468.44067				222.38000	842.43292	2349.28491							-43.48249	989.17389	2528.33350	-92.45765	511.45065	2214.29565	91.52926	478.42105	2480.17163	-77.57572	183.39438	2168.24365	50.52538	175.88898	2626.97949	
23	0.220				-2.71864	1662.51184	2378.91211	-125.52084	1590.72021	2296.44165				-199.23402	1374.37915	2342.08691	157.62210	1378.28174	2414.32446				-23.22514	1435.45520	2426.47266	-255.44438	1039.59473	2341.32397	222.56682	1031.53235	2462.91699				222.44733	841.51489	2341.80396							-43.69906	988.20844	2522.67285	-91.32104	509.68356	2211.00220	91.24358	478.10693	2476.20483	-76.46386	182.99525	2159.15405	50.68859	176.25348	2626.35815	
24	0.230				-3.10499	1662.05566	2373.22437	-126.13329	1589.76074	2291.16431				-199.85001	1373.83386	2336.40039	157.44160	1377.39673	2408.75122				-23.45123	1434.02515	2420.09521	-255.50888	1037.94128	2333.97583	222.62245	1030.49854	2456.51758				223.07181	841.97174	2333.54517							-43.11678	986.68604	2515.82813	-91.44236	508.88446	2205.65063	91.61508	477.79831	2472.91528	-75.98783	182.87090	2149.69751	50.87671	176.50739	2626.10791	
25	0.240				-3.17840	1661.18628	2367.03687	-126.24001	1588.59998	2284.86719				-199.54593	1372.24780	2330.12866	157.38606	1376.00305	2402.75342				-24.00601	1433.14307	2414.91846	-255.62590	1037.51514	2327.13599	222.84200	1029.58875	2449.94556	-211.54231	869.09845	2216.93359	223.57623	839.35583	2330.38257							-42.73051	985.51721	2509.25244	-90.68990	506.55197	2201.14087	92.12776	476.92807	2469.54272	-74.99512	181.82982	2143.06738	51.04802	177.02989	2625.18628	
26	0.250				-3.61273	1660.82288	2360.88647	-126.83078	1587.71240	2279.97534				-199.56799	1371.00146	2323.79517	157.12280	1375.60071	2396.72314				-23.88549	1432.10071	2408.70654	-255.75145	1035.56482	2319.15405	222.90038	1029.07056	2444.37793	-212.18127	867.77533	2210.38916	224.05272	838.28571	2327.88550							-42.91407	985.02087	2503.04834	-91.30501	505.76077	2194.61792	92.92464	477.01364	2467.46509	-74.23318	180.71892	2136.61792	51.38012	178.46477	2624.44995	
27	0.260				-3.66722	1660.09814	2354.57715	-126.83812	1586.73718	2273.47021				-200.26811	1370.01318	2318.08521	156.57332	1374.99463	2391.12476				-24.32715	1431.56091	2402.95825	-256.11804	1035.30310	2312.02881	223.12852	1027.99133	2437.79956	-212.60721	867.80621	2201.71045	224.69136	837.71814	2317.47314							-42.36752	983.27032	2495.56104	-90.49947	503.98987	2189.27417	93.57310	476.85730	2464.38721	-73.52858	178.62051	2132.21265	51.63342	178.73232	2624.13135	
